<?xml version="1.0" encoding="utf-8" standalone="no"?>
<!DOCTYPE svg PUBLIC "-//W3C//DTD SVG 1.1//EN"
  "http://www.w3.org/Graphics/SVG/1.1/DTD/svg11.dtd">
<!-- Created with matplotlib (https://matplotlib.org/) -->
<svg height="310.86825pt" version="1.1" viewBox="0 0 417.648125 310.86825" width="417.648125pt" xmlns="http://www.w3.org/2000/svg" xmlns:xlink="http://www.w3.org/1999/xlink">
 <defs>
  <style type="text/css">
*{stroke-linecap:butt;stroke-linejoin:round;}
  </style>
 </defs>
 <g id="figure_1">
  <g id="patch_1">
   <path d="M 0 310.86825 
L 417.648125 310.86825 
L 417.648125 0 
L 0 0 
z
" style="fill:#ffffff;"/>
  </g>
  <g id="axes_1">
   <g id="patch_2">
    <path d="M 53.328125 273.312 
L 410.448125 273.312 
L 410.448125 7.2 
L 53.328125 7.2 
z
" style="fill:#ffffff;"/>
   </g>
   <g id="matplotlib.axis_1">
    <g id="xtick_1">
     <g id="line2d_1">
      <defs>
       <path d="M 0 0 
L 0 3.5 
" id="m934986b819" style="stroke:#000000;stroke-width:0.8;"/>
      </defs>
      <g>
       <use style="stroke:#000000;stroke-width:0.8;" x="69.560852" xlink:href="#m934986b819" y="273.312"/>
      </g>
     </g>
     <g id="text_1">
      <!-- 0 -->
      <defs>
       <path d="M 31.78125 66.40625 
Q 24.171875 66.40625 20.328125 58.90625 
Q 16.5 51.421875 16.5 36.375 
Q 16.5 21.390625 20.328125 13.890625 
Q 24.171875 6.390625 31.78125 6.390625 
Q 39.453125 6.390625 43.28125 13.890625 
Q 47.125 21.390625 47.125 36.375 
Q 47.125 51.421875 43.28125 58.90625 
Q 39.453125 66.40625 31.78125 66.40625 
z
M 31.78125 74.21875 
Q 44.046875 74.21875 50.515625 64.515625 
Q 56.984375 54.828125 56.984375 36.375 
Q 56.984375 17.96875 50.515625 8.265625 
Q 44.046875 -1.421875 31.78125 -1.421875 
Q 19.53125 -1.421875 13.0625 8.265625 
Q 6.59375 17.96875 6.59375 36.375 
Q 6.59375 54.828125 13.0625 64.515625 
Q 19.53125 74.21875 31.78125 74.21875 
z
" id="DejaVuSans-48"/>
      </defs>
      <g transform="translate(66.379602 287.910437)scale(0.1 -0.1)">
       <use xlink:href="#DejaVuSans-48"/>
      </g>
     </g>
    </g>
    <g id="xtick_2">
     <g id="line2d_2">
      <g>
       <use style="stroke:#000000;stroke-width:0.8;" x="135.147629" xlink:href="#m934986b819" y="273.312"/>
      </g>
     </g>
     <g id="text_2">
      <!-- 20 -->
      <defs>
       <path d="M 19.1875 8.296875 
L 53.609375 8.296875 
L 53.609375 0 
L 7.328125 0 
L 7.328125 8.296875 
Q 12.9375 14.109375 22.625 23.890625 
Q 32.328125 33.6875 34.8125 36.53125 
Q 39.546875 41.84375 41.421875 45.53125 
Q 43.3125 49.21875 43.3125 52.78125 
Q 43.3125 58.59375 39.234375 62.25 
Q 35.15625 65.921875 28.609375 65.921875 
Q 23.96875 65.921875 18.8125 64.3125 
Q 13.671875 62.703125 7.8125 59.421875 
L 7.8125 69.390625 
Q 13.765625 71.78125 18.9375 73 
Q 24.125 74.21875 28.421875 74.21875 
Q 39.75 74.21875 46.484375 68.546875 
Q 53.21875 62.890625 53.21875 53.421875 
Q 53.21875 48.921875 51.53125 44.890625 
Q 49.859375 40.875 45.40625 35.40625 
Q 44.1875 33.984375 37.640625 27.21875 
Q 31.109375 20.453125 19.1875 8.296875 
z
" id="DejaVuSans-50"/>
      </defs>
      <g transform="translate(128.785129 287.910437)scale(0.1 -0.1)">
       <use xlink:href="#DejaVuSans-50"/>
       <use x="63.623047" xlink:href="#DejaVuSans-48"/>
      </g>
     </g>
    </g>
    <g id="xtick_3">
     <g id="line2d_3">
      <g>
       <use style="stroke:#000000;stroke-width:0.8;" x="200.734406" xlink:href="#m934986b819" y="273.312"/>
      </g>
     </g>
     <g id="text_3">
      <!-- 40 -->
      <defs>
       <path d="M 37.796875 64.3125 
L 12.890625 25.390625 
L 37.796875 25.390625 
z
M 35.203125 72.90625 
L 47.609375 72.90625 
L 47.609375 25.390625 
L 58.015625 25.390625 
L 58.015625 17.1875 
L 47.609375 17.1875 
L 47.609375 0 
L 37.796875 0 
L 37.796875 17.1875 
L 4.890625 17.1875 
L 4.890625 26.703125 
z
" id="DejaVuSans-52"/>
      </defs>
      <g transform="translate(194.371906 287.910437)scale(0.1 -0.1)">
       <use xlink:href="#DejaVuSans-52"/>
       <use x="63.623047" xlink:href="#DejaVuSans-48"/>
      </g>
     </g>
    </g>
    <g id="xtick_4">
     <g id="line2d_4">
      <g>
       <use style="stroke:#000000;stroke-width:0.8;" x="266.321183" xlink:href="#m934986b819" y="273.312"/>
      </g>
     </g>
     <g id="text_4">
      <!-- 60 -->
      <defs>
       <path d="M 33.015625 40.375 
Q 26.375 40.375 22.484375 35.828125 
Q 18.609375 31.296875 18.609375 23.390625 
Q 18.609375 15.53125 22.484375 10.953125 
Q 26.375 6.390625 33.015625 6.390625 
Q 39.65625 6.390625 43.53125 10.953125 
Q 47.40625 15.53125 47.40625 23.390625 
Q 47.40625 31.296875 43.53125 35.828125 
Q 39.65625 40.375 33.015625 40.375 
z
M 52.59375 71.296875 
L 52.59375 62.3125 
Q 48.875 64.0625 45.09375 64.984375 
Q 41.3125 65.921875 37.59375 65.921875 
Q 27.828125 65.921875 22.671875 59.328125 
Q 17.53125 52.734375 16.796875 39.40625 
Q 19.671875 43.65625 24.015625 45.921875 
Q 28.375 48.1875 33.59375 48.1875 
Q 44.578125 48.1875 50.953125 41.515625 
Q 57.328125 34.859375 57.328125 23.390625 
Q 57.328125 12.15625 50.6875 5.359375 
Q 44.046875 -1.421875 33.015625 -1.421875 
Q 20.359375 -1.421875 13.671875 8.265625 
Q 6.984375 17.96875 6.984375 36.375 
Q 6.984375 53.65625 15.1875 63.9375 
Q 23.390625 74.21875 37.203125 74.21875 
Q 40.921875 74.21875 44.703125 73.484375 
Q 48.484375 72.75 52.59375 71.296875 
z
" id="DejaVuSans-54"/>
      </defs>
      <g transform="translate(259.958683 287.910437)scale(0.1 -0.1)">
       <use xlink:href="#DejaVuSans-54"/>
       <use x="63.623047" xlink:href="#DejaVuSans-48"/>
      </g>
     </g>
    </g>
    <g id="xtick_5">
     <g id="line2d_5">
      <g>
       <use style="stroke:#000000;stroke-width:0.8;" x="331.90796" xlink:href="#m934986b819" y="273.312"/>
      </g>
     </g>
     <g id="text_5">
      <!-- 80 -->
      <defs>
       <path d="M 31.78125 34.625 
Q 24.75 34.625 20.71875 30.859375 
Q 16.703125 27.09375 16.703125 20.515625 
Q 16.703125 13.921875 20.71875 10.15625 
Q 24.75 6.390625 31.78125 6.390625 
Q 38.8125 6.390625 42.859375 10.171875 
Q 46.921875 13.96875 46.921875 20.515625 
Q 46.921875 27.09375 42.890625 30.859375 
Q 38.875 34.625 31.78125 34.625 
z
M 21.921875 38.8125 
Q 15.578125 40.375 12.03125 44.71875 
Q 8.5 49.078125 8.5 55.328125 
Q 8.5 64.0625 14.71875 69.140625 
Q 20.953125 74.21875 31.78125 74.21875 
Q 42.671875 74.21875 48.875 69.140625 
Q 55.078125 64.0625 55.078125 55.328125 
Q 55.078125 49.078125 51.53125 44.71875 
Q 48 40.375 41.703125 38.8125 
Q 48.828125 37.15625 52.796875 32.3125 
Q 56.78125 27.484375 56.78125 20.515625 
Q 56.78125 9.90625 50.3125 4.234375 
Q 43.84375 -1.421875 31.78125 -1.421875 
Q 19.734375 -1.421875 13.25 4.234375 
Q 6.78125 9.90625 6.78125 20.515625 
Q 6.78125 27.484375 10.78125 32.3125 
Q 14.796875 37.15625 21.921875 38.8125 
z
M 18.3125 54.390625 
Q 18.3125 48.734375 21.84375 45.5625 
Q 25.390625 42.390625 31.78125 42.390625 
Q 38.140625 42.390625 41.71875 45.5625 
Q 45.3125 48.734375 45.3125 54.390625 
Q 45.3125 60.0625 41.71875 63.234375 
Q 38.140625 66.40625 31.78125 66.40625 
Q 25.390625 66.40625 21.84375 63.234375 
Q 18.3125 60.0625 18.3125 54.390625 
z
" id="DejaVuSans-56"/>
      </defs>
      <g transform="translate(325.54546 287.910437)scale(0.1 -0.1)">
       <use xlink:href="#DejaVuSans-56"/>
       <use x="63.623047" xlink:href="#DejaVuSans-48"/>
      </g>
     </g>
    </g>
    <g id="xtick_6">
     <g id="line2d_6">
      <g>
       <use style="stroke:#000000;stroke-width:0.8;" x="397.494737" xlink:href="#m934986b819" y="273.312"/>
      </g>
     </g>
     <g id="text_6">
      <!-- 100 -->
      <defs>
       <path d="M 12.40625 8.296875 
L 28.515625 8.296875 
L 28.515625 63.921875 
L 10.984375 60.40625 
L 10.984375 69.390625 
L 28.421875 72.90625 
L 38.28125 72.90625 
L 38.28125 8.296875 
L 54.390625 8.296875 
L 54.390625 0 
L 12.40625 0 
z
" id="DejaVuSans-49"/>
      </defs>
      <g transform="translate(387.950987 287.910437)scale(0.1 -0.1)">
       <use xlink:href="#DejaVuSans-49"/>
       <use x="63.623047" xlink:href="#DejaVuSans-48"/>
       <use x="127.246094" xlink:href="#DejaVuSans-48"/>
      </g>
     </g>
    </g>
    <g id="text_7">
     <!-- Number of Generation -->
     <defs>
      <path d="M 9.8125 72.90625 
L 23.09375 72.90625 
L 55.421875 11.921875 
L 55.421875 72.90625 
L 64.984375 72.90625 
L 64.984375 0 
L 51.703125 0 
L 19.390625 60.984375 
L 19.390625 0 
L 9.8125 0 
z
" id="DejaVuSans-78"/>
      <path d="M 8.5 21.578125 
L 8.5 54.6875 
L 17.484375 54.6875 
L 17.484375 21.921875 
Q 17.484375 14.15625 20.5 10.265625 
Q 23.53125 6.390625 29.59375 6.390625 
Q 36.859375 6.390625 41.078125 11.03125 
Q 45.3125 15.671875 45.3125 23.6875 
L 45.3125 54.6875 
L 54.296875 54.6875 
L 54.296875 0 
L 45.3125 0 
L 45.3125 8.40625 
Q 42.046875 3.421875 37.71875 1 
Q 33.40625 -1.421875 27.6875 -1.421875 
Q 18.265625 -1.421875 13.375 4.4375 
Q 8.5 10.296875 8.5 21.578125 
z
M 31.109375 56 
z
" id="DejaVuSans-117"/>
      <path d="M 52 44.1875 
Q 55.375 50.25 60.0625 53.125 
Q 64.75 56 71.09375 56 
Q 79.640625 56 84.28125 50.015625 
Q 88.921875 44.046875 88.921875 33.015625 
L 88.921875 0 
L 79.890625 0 
L 79.890625 32.71875 
Q 79.890625 40.578125 77.09375 44.375 
Q 74.3125 48.1875 68.609375 48.1875 
Q 61.625 48.1875 57.5625 43.546875 
Q 53.515625 38.921875 53.515625 30.90625 
L 53.515625 0 
L 44.484375 0 
L 44.484375 32.71875 
Q 44.484375 40.625 41.703125 44.40625 
Q 38.921875 48.1875 33.109375 48.1875 
Q 26.21875 48.1875 22.15625 43.53125 
Q 18.109375 38.875 18.109375 30.90625 
L 18.109375 0 
L 9.078125 0 
L 9.078125 54.6875 
L 18.109375 54.6875 
L 18.109375 46.1875 
Q 21.1875 51.21875 25.484375 53.609375 
Q 29.78125 56 35.6875 56 
Q 41.65625 56 45.828125 52.96875 
Q 50 49.953125 52 44.1875 
z
" id="DejaVuSans-109"/>
      <path d="M 48.6875 27.296875 
Q 48.6875 37.203125 44.609375 42.84375 
Q 40.53125 48.484375 33.40625 48.484375 
Q 26.265625 48.484375 22.1875 42.84375 
Q 18.109375 37.203125 18.109375 27.296875 
Q 18.109375 17.390625 22.1875 11.75 
Q 26.265625 6.109375 33.40625 6.109375 
Q 40.53125 6.109375 44.609375 11.75 
Q 48.6875 17.390625 48.6875 27.296875 
z
M 18.109375 46.390625 
Q 20.953125 51.265625 25.265625 53.625 
Q 29.59375 56 35.59375 56 
Q 45.5625 56 51.78125 48.09375 
Q 58.015625 40.1875 58.015625 27.296875 
Q 58.015625 14.40625 51.78125 6.484375 
Q 45.5625 -1.421875 35.59375 -1.421875 
Q 29.59375 -1.421875 25.265625 0.953125 
Q 20.953125 3.328125 18.109375 8.203125 
L 18.109375 0 
L 9.078125 0 
L 9.078125 75.984375 
L 18.109375 75.984375 
z
" id="DejaVuSans-98"/>
      <path d="M 56.203125 29.59375 
L 56.203125 25.203125 
L 14.890625 25.203125 
Q 15.484375 15.921875 20.484375 11.0625 
Q 25.484375 6.203125 34.421875 6.203125 
Q 39.59375 6.203125 44.453125 7.46875 
Q 49.3125 8.734375 54.109375 11.28125 
L 54.109375 2.78125 
Q 49.265625 0.734375 44.1875 -0.34375 
Q 39.109375 -1.421875 33.890625 -1.421875 
Q 20.796875 -1.421875 13.15625 6.1875 
Q 5.515625 13.8125 5.515625 26.8125 
Q 5.515625 40.234375 12.765625 48.109375 
Q 20.015625 56 32.328125 56 
Q 43.359375 56 49.78125 48.890625 
Q 56.203125 41.796875 56.203125 29.59375 
z
M 47.21875 32.234375 
Q 47.125 39.59375 43.09375 43.984375 
Q 39.0625 48.390625 32.421875 48.390625 
Q 24.90625 48.390625 20.390625 44.140625 
Q 15.875 39.890625 15.1875 32.171875 
z
" id="DejaVuSans-101"/>
      <path d="M 41.109375 46.296875 
Q 39.59375 47.171875 37.8125 47.578125 
Q 36.03125 48 33.890625 48 
Q 26.265625 48 22.1875 43.046875 
Q 18.109375 38.09375 18.109375 28.8125 
L 18.109375 0 
L 9.078125 0 
L 9.078125 54.6875 
L 18.109375 54.6875 
L 18.109375 46.1875 
Q 20.953125 51.171875 25.484375 53.578125 
Q 30.03125 56 36.53125 56 
Q 37.453125 56 38.578125 55.875 
Q 39.703125 55.765625 41.0625 55.515625 
z
" id="DejaVuSans-114"/>
      <path id="DejaVuSans-32"/>
      <path d="M 30.609375 48.390625 
Q 23.390625 48.390625 19.1875 42.75 
Q 14.984375 37.109375 14.984375 27.296875 
Q 14.984375 17.484375 19.15625 11.84375 
Q 23.34375 6.203125 30.609375 6.203125 
Q 37.796875 6.203125 41.984375 11.859375 
Q 46.1875 17.53125 46.1875 27.296875 
Q 46.1875 37.015625 41.984375 42.703125 
Q 37.796875 48.390625 30.609375 48.390625 
z
M 30.609375 56 
Q 42.328125 56 49.015625 48.375 
Q 55.71875 40.765625 55.71875 27.296875 
Q 55.71875 13.875 49.015625 6.21875 
Q 42.328125 -1.421875 30.609375 -1.421875 
Q 18.84375 -1.421875 12.171875 6.21875 
Q 5.515625 13.875 5.515625 27.296875 
Q 5.515625 40.765625 12.171875 48.375 
Q 18.84375 56 30.609375 56 
z
" id="DejaVuSans-111"/>
      <path d="M 37.109375 75.984375 
L 37.109375 68.5 
L 28.515625 68.5 
Q 23.6875 68.5 21.796875 66.546875 
Q 19.921875 64.59375 19.921875 59.515625 
L 19.921875 54.6875 
L 34.71875 54.6875 
L 34.71875 47.703125 
L 19.921875 47.703125 
L 19.921875 0 
L 10.890625 0 
L 10.890625 47.703125 
L 2.296875 47.703125 
L 2.296875 54.6875 
L 10.890625 54.6875 
L 10.890625 58.5 
Q 10.890625 67.625 15.140625 71.796875 
Q 19.390625 75.984375 28.609375 75.984375 
z
" id="DejaVuSans-102"/>
      <path d="M 59.515625 10.40625 
L 59.515625 29.984375 
L 43.40625 29.984375 
L 43.40625 38.09375 
L 69.28125 38.09375 
L 69.28125 6.78125 
Q 63.578125 2.734375 56.6875 0.65625 
Q 49.8125 -1.421875 42 -1.421875 
Q 24.90625 -1.421875 15.25 8.5625 
Q 5.609375 18.5625 5.609375 36.375 
Q 5.609375 54.25 15.25 64.234375 
Q 24.90625 74.21875 42 74.21875 
Q 49.125 74.21875 55.546875 72.453125 
Q 61.96875 70.703125 67.390625 67.28125 
L 67.390625 56.78125 
Q 61.921875 61.421875 55.765625 63.765625 
Q 49.609375 66.109375 42.828125 66.109375 
Q 29.4375 66.109375 22.71875 58.640625 
Q 16.015625 51.171875 16.015625 36.375 
Q 16.015625 21.625 22.71875 14.15625 
Q 29.4375 6.6875 42.828125 6.6875 
Q 48.046875 6.6875 52.140625 7.59375 
Q 56.25 8.5 59.515625 10.40625 
z
" id="DejaVuSans-71"/>
      <path d="M 54.890625 33.015625 
L 54.890625 0 
L 45.90625 0 
L 45.90625 32.71875 
Q 45.90625 40.484375 42.875 44.328125 
Q 39.84375 48.1875 33.796875 48.1875 
Q 26.515625 48.1875 22.3125 43.546875 
Q 18.109375 38.921875 18.109375 30.90625 
L 18.109375 0 
L 9.078125 0 
L 9.078125 54.6875 
L 18.109375 54.6875 
L 18.109375 46.1875 
Q 21.34375 51.125 25.703125 53.5625 
Q 30.078125 56 35.796875 56 
Q 45.21875 56 50.046875 50.171875 
Q 54.890625 44.34375 54.890625 33.015625 
z
" id="DejaVuSans-110"/>
      <path d="M 34.28125 27.484375 
Q 23.390625 27.484375 19.1875 25 
Q 14.984375 22.515625 14.984375 16.5 
Q 14.984375 11.71875 18.140625 8.90625 
Q 21.296875 6.109375 26.703125 6.109375 
Q 34.1875 6.109375 38.703125 11.40625 
Q 43.21875 16.703125 43.21875 25.484375 
L 43.21875 27.484375 
z
M 52.203125 31.203125 
L 52.203125 0 
L 43.21875 0 
L 43.21875 8.296875 
Q 40.140625 3.328125 35.546875 0.953125 
Q 30.953125 -1.421875 24.3125 -1.421875 
Q 15.921875 -1.421875 10.953125 3.296875 
Q 6 8.015625 6 15.921875 
Q 6 25.140625 12.171875 29.828125 
Q 18.359375 34.515625 30.609375 34.515625 
L 43.21875 34.515625 
L 43.21875 35.40625 
Q 43.21875 41.609375 39.140625 45 
Q 35.0625 48.390625 27.6875 48.390625 
Q 23 48.390625 18.546875 47.265625 
Q 14.109375 46.140625 10.015625 43.890625 
L 10.015625 52.203125 
Q 14.9375 54.109375 19.578125 55.046875 
Q 24.21875 56 28.609375 56 
Q 40.484375 56 46.34375 49.84375 
Q 52.203125 43.703125 52.203125 31.203125 
z
" id="DejaVuSans-97"/>
      <path d="M 18.3125 70.21875 
L 18.3125 54.6875 
L 36.8125 54.6875 
L 36.8125 47.703125 
L 18.3125 47.703125 
L 18.3125 18.015625 
Q 18.3125 11.328125 20.140625 9.421875 
Q 21.96875 7.515625 27.59375 7.515625 
L 36.8125 7.515625 
L 36.8125 0 
L 27.59375 0 
Q 17.1875 0 13.234375 3.875 
Q 9.28125 7.765625 9.28125 18.015625 
L 9.28125 47.703125 
L 2.6875 47.703125 
L 2.6875 54.6875 
L 9.28125 54.6875 
L 9.28125 70.21875 
z
" id="DejaVuSans-116"/>
      <path d="M 9.421875 54.6875 
L 18.40625 54.6875 
L 18.40625 0 
L 9.421875 0 
z
M 9.421875 75.984375 
L 18.40625 75.984375 
L 18.40625 64.59375 
L 9.421875 64.59375 
z
" id="DejaVuSans-105"/>
     </defs>
     <g transform="translate(175.911563 301.588562)scale(0.1 -0.1)">
      <use xlink:href="#DejaVuSans-78"/>
      <use x="74.804688" xlink:href="#DejaVuSans-117"/>
      <use x="138.183594" xlink:href="#DejaVuSans-109"/>
      <use x="235.595703" xlink:href="#DejaVuSans-98"/>
      <use x="299.072266" xlink:href="#DejaVuSans-101"/>
      <use x="360.595703" xlink:href="#DejaVuSans-114"/>
      <use x="401.708984" xlink:href="#DejaVuSans-32"/>
      <use x="433.496094" xlink:href="#DejaVuSans-111"/>
      <use x="494.677734" xlink:href="#DejaVuSans-102"/>
      <use x="529.882812" xlink:href="#DejaVuSans-32"/>
      <use x="561.669922" xlink:href="#DejaVuSans-71"/>
      <use x="639.160156" xlink:href="#DejaVuSans-101"/>
      <use x="700.683594" xlink:href="#DejaVuSans-110"/>
      <use x="764.0625" xlink:href="#DejaVuSans-101"/>
      <use x="825.585938" xlink:href="#DejaVuSans-114"/>
      <use x="866.699219" xlink:href="#DejaVuSans-97"/>
      <use x="927.978516" xlink:href="#DejaVuSans-116"/>
      <use x="967.1875" xlink:href="#DejaVuSans-105"/>
      <use x="994.970703" xlink:href="#DejaVuSans-111"/>
      <use x="1056.152344" xlink:href="#DejaVuSans-110"/>
     </g>
    </g>
   </g>
   <g id="matplotlib.axis_2">
    <g id="ytick_1">
     <g id="line2d_7">
      <defs>
       <path d="M 0 0 
L -3.5 0 
" id="ma2e05bd4c3" style="stroke:#000000;stroke-width:0.8;"/>
      </defs>
      <g>
       <use style="stroke:#000000;stroke-width:0.8;" x="53.328125" xlink:href="#ma2e05bd4c3" y="258.951218"/>
      </g>
     </g>
     <g id="text_8">
      <!-- 800 -->
      <g transform="translate(27.240625 262.750437)scale(0.1 -0.1)">
       <use xlink:href="#DejaVuSans-56"/>
       <use x="63.623047" xlink:href="#DejaVuSans-48"/>
       <use x="127.246094" xlink:href="#DejaVuSans-48"/>
      </g>
     </g>
    </g>
    <g id="ytick_2">
     <g id="line2d_8">
      <g>
       <use style="stroke:#000000;stroke-width:0.8;" x="53.328125" xlink:href="#ma2e05bd4c3" y="226.563353"/>
      </g>
     </g>
     <g id="text_9">
      <!-- 1000 -->
      <g transform="translate(20.878125 230.362572)scale(0.1 -0.1)">
       <use xlink:href="#DejaVuSans-49"/>
       <use x="63.623047" xlink:href="#DejaVuSans-48"/>
       <use x="127.246094" xlink:href="#DejaVuSans-48"/>
       <use x="190.869141" xlink:href="#DejaVuSans-48"/>
      </g>
     </g>
    </g>
    <g id="ytick_3">
     <g id="line2d_9">
      <g>
       <use style="stroke:#000000;stroke-width:0.8;" x="53.328125" xlink:href="#ma2e05bd4c3" y="194.175488"/>
      </g>
     </g>
     <g id="text_10">
      <!-- 1200 -->
      <g transform="translate(20.878125 197.974707)scale(0.1 -0.1)">
       <use xlink:href="#DejaVuSans-49"/>
       <use x="63.623047" xlink:href="#DejaVuSans-50"/>
       <use x="127.246094" xlink:href="#DejaVuSans-48"/>
       <use x="190.869141" xlink:href="#DejaVuSans-48"/>
      </g>
     </g>
    </g>
    <g id="ytick_4">
     <g id="line2d_10">
      <g>
       <use style="stroke:#000000;stroke-width:0.8;" x="53.328125" xlink:href="#ma2e05bd4c3" y="161.787623"/>
      </g>
     </g>
     <g id="text_11">
      <!-- 1400 -->
      <g transform="translate(20.878125 165.586842)scale(0.1 -0.1)">
       <use xlink:href="#DejaVuSans-49"/>
       <use x="63.623047" xlink:href="#DejaVuSans-52"/>
       <use x="127.246094" xlink:href="#DejaVuSans-48"/>
       <use x="190.869141" xlink:href="#DejaVuSans-48"/>
      </g>
     </g>
    </g>
    <g id="ytick_5">
     <g id="line2d_11">
      <g>
       <use style="stroke:#000000;stroke-width:0.8;" x="53.328125" xlink:href="#ma2e05bd4c3" y="129.399758"/>
      </g>
     </g>
     <g id="text_12">
      <!-- 1600 -->
      <g transform="translate(20.878125 133.198977)scale(0.1 -0.1)">
       <use xlink:href="#DejaVuSans-49"/>
       <use x="63.623047" xlink:href="#DejaVuSans-54"/>
       <use x="127.246094" xlink:href="#DejaVuSans-48"/>
       <use x="190.869141" xlink:href="#DejaVuSans-48"/>
      </g>
     </g>
    </g>
    <g id="ytick_6">
     <g id="line2d_12">
      <g>
       <use style="stroke:#000000;stroke-width:0.8;" x="53.328125" xlink:href="#ma2e05bd4c3" y="97.011893"/>
      </g>
     </g>
     <g id="text_13">
      <!-- 1800 -->
      <g transform="translate(20.878125 100.811112)scale(0.1 -0.1)">
       <use xlink:href="#DejaVuSans-49"/>
       <use x="63.623047" xlink:href="#DejaVuSans-56"/>
       <use x="127.246094" xlink:href="#DejaVuSans-48"/>
       <use x="190.869141" xlink:href="#DejaVuSans-48"/>
      </g>
     </g>
    </g>
    <g id="ytick_7">
     <g id="line2d_13">
      <g>
       <use style="stroke:#000000;stroke-width:0.8;" x="53.328125" xlink:href="#ma2e05bd4c3" y="64.624028"/>
      </g>
     </g>
     <g id="text_14">
      <!-- 2000 -->
      <g transform="translate(20.878125 68.423247)scale(0.1 -0.1)">
       <use xlink:href="#DejaVuSans-50"/>
       <use x="63.623047" xlink:href="#DejaVuSans-48"/>
       <use x="127.246094" xlink:href="#DejaVuSans-48"/>
       <use x="190.869141" xlink:href="#DejaVuSans-48"/>
      </g>
     </g>
    </g>
    <g id="ytick_8">
     <g id="line2d_14">
      <g>
       <use style="stroke:#000000;stroke-width:0.8;" x="53.328125" xlink:href="#ma2e05bd4c3" y="32.236163"/>
      </g>
     </g>
     <g id="text_15">
      <!-- 2200 -->
      <g transform="translate(20.878125 36.035382)scale(0.1 -0.1)">
       <use xlink:href="#DejaVuSans-50"/>
       <use x="63.623047" xlink:href="#DejaVuSans-50"/>
       <use x="127.246094" xlink:href="#DejaVuSans-48"/>
       <use x="190.869141" xlink:href="#DejaVuSans-48"/>
      </g>
     </g>
    </g>
    <g id="text_16">
     <!-- Value -->
     <defs>
      <path d="M 28.609375 0 
L 0.78125 72.90625 
L 11.078125 72.90625 
L 34.1875 11.53125 
L 57.328125 72.90625 
L 67.578125 72.90625 
L 39.796875 0 
z
" id="DejaVuSans-86"/>
      <path d="M 9.421875 75.984375 
L 18.40625 75.984375 
L 18.40625 0 
L 9.421875 0 
z
" id="DejaVuSans-108"/>
     </defs>
     <g transform="translate(14.798438 154.369281)rotate(-90)scale(0.1 -0.1)">
      <use xlink:href="#DejaVuSans-86"/>
      <use x="68.298828" xlink:href="#DejaVuSans-97"/>
      <use x="129.578125" xlink:href="#DejaVuSans-108"/>
      <use x="157.361328" xlink:href="#DejaVuSans-117"/>
      <use x="220.740234" xlink:href="#DejaVuSans-101"/>
     </g>
    </g>
   </g>
   <g id="line2d_15">
    <path clip-path="url(#p5d86fe0d92)" d="M 69.560852 19.296 
L 72.840191 47.453184 
L 76.11953 67.992632 
L 79.398869 84.023767 
L 82.678208 96.475498 
L 85.957546 109.797144 
L 89.236885 118.639888 
L 92.516224 127.953764 
L 95.795563 136.829282 
L 99.074902 144.228597 
L 102.354241 150.06408 
L 105.63358 156.420783 
L 108.912918 161.120596 
L 112.192257 165.148209 
L 115.471596 168.181227 
L 118.750935 172.051567 
L 122.030274 176.278353 
L 125.309613 179.840745 
L 128.588951 182.401779 
L 131.86829 185.599919 
L 135.147629 187.926875 
L 138.426968 190.118165 
L 141.706307 192.106809 
L 144.985646 193.837389 
L 148.264985 196.263246 
L 151.544323 198.554738 
L 154.823662 200.417589 
L 158.103001 201.394277 
L 161.38234 203.098472 
L 164.661679 204.302856 
L 167.941018 205.995847 
L 171.220356 207.325295 
L 174.499695 208.413945 
L 177.779034 209.503882 
L 181.058373 210.395378 
L 184.337712 211.962335 
L 187.617051 212.919926 
L 190.896389 214.156416 
L 194.175728 214.804509 
L 197.455067 215.741664 
L 200.734406 216.515339 
L 204.013745 217.681667 
L 207.293084 218.519626 
L 210.572423 219.371136 
L 213.851761 220.11207 
L 217.1311 220.899998 
L 220.410439 221.44608 
L 223.689778 222.126237 
L 226.969117 222.860959 
L 230.248456 223.610437 
L 233.527794 224.312505 
L 236.807133 224.842773 
L 240.086472 225.431528 
L 243.365811 226.14808 
L 246.64515 226.571991 
L 249.924489 227.053423 
L 253.203827 227.48916 
L 256.483166 228.114983 
L 259.762505 228.806061 
L 263.041844 229.441692 
L 266.321183 229.917026 
L 269.600522 230.809276 
L 272.879861 231.616028 
L 276.159199 231.985138 
L 279.438538 232.394918 
L 282.717877 232.588193 
L 285.997216 232.822401 
L 289.276555 233.109269 
L 292.555894 233.237676 
L 295.835232 233.299993 
L 299.114571 233.556823 
L 302.39391 233.68123 
L 305.673249 233.848328 
L 308.952588 233.936359 
L 312.231927 234.054658 
L 315.511265 234.112463 
L 318.790604 234.348742 
L 322.069943 234.459026 
L 325.349282 234.741804 
L 328.628621 234.799738 
L 331.90796 235.024457 
L 335.187299 235.118784 
L 338.466637 235.418201 
L 341.745976 235.576445 
L 345.025315 235.631479 
L 348.304654 235.643313 
L 351.583993 235.680706 
L 354.863332 235.776679 
L 358.14267 235.981123 
L 361.422009 236.265557 
L 364.701348 236.419382 
L 367.980687 236.59277 
L 371.260026 236.716273 
L 374.539365 236.783447 
L 377.818704 236.869033 
L 381.098042 237.030539 
L 384.377381 237.115708 
L 387.65672 237.165304 
L 390.936059 237.368349 
L 394.215398 237.492847 
" style="fill:none;stroke:#1f77b4;stroke-linecap:square;stroke-width:1.5;"/>
   </g>
   <g id="line2d_16">
    <path clip-path="url(#p5d86fe0d92)" d="M 69.560852 221.896176 
L 72.840191 221.896176 
L 76.11953 221.896176 
L 79.398869 244.750692 
L 82.678208 244.750692 
L 85.957546 244.750692 
L 89.236885 244.750692 
L 92.516224 244.750692 
L 95.795563 244.750692 
L 99.074902 244.750692 
L 102.354241 244.750692 
L 105.63358 244.750692 
L 108.912918 244.750692 
L 112.192257 244.750692 
L 115.471596 247.945452 
L 118.750935 247.945452 
L 122.030274 255.101027 
L 125.309613 255.101027 
L 128.588951 255.101027 
L 131.86829 255.101027 
L 135.147629 258.896309 
L 138.426968 258.896309 
L 141.706307 258.896309 
L 144.985646 258.896309 
L 148.264985 258.896309 
L 151.544323 258.896309 
L 154.823662 259.428485 
L 158.103001 259.428485 
L 161.38234 259.428485 
L 164.661679 259.428485 
L 167.941018 259.428485 
L 171.220356 259.428485 
L 174.499695 259.428485 
L 177.779034 259.428485 
L 181.058373 259.428485 
L 184.337712 259.428485 
L 187.617051 260.167462 
L 190.896389 260.167462 
L 194.175728 260.167462 
L 197.455067 260.167462 
L 200.734406 260.167462 
L 204.013745 260.167462 
L 207.293084 260.167462 
L 210.572423 260.167462 
L 213.851761 260.167462 
L 217.1311 260.167462 
L 220.410439 260.167462 
L 223.689778 260.167462 
L 226.969117 260.167462 
L 230.248456 260.167462 
L 233.527794 260.167462 
L 236.807133 260.167462 
L 240.086472 260.167462 
L 243.365811 260.167462 
L 246.64515 260.167462 
L 249.924489 260.167462 
L 253.203827 260.167462 
L 256.483166 260.167462 
L 259.762505 260.167462 
L 263.041844 260.220711 
L 266.321183 260.220711 
L 269.600522 260.220711 
L 272.879861 260.220711 
L 276.159199 260.220711 
L 279.438538 260.524374 
L 282.717877 260.524374 
L 285.997216 260.524374 
L 289.276555 260.524374 
L 292.555894 260.524374 
L 295.835232 260.524374 
L 299.114571 260.524374 
L 302.39391 260.524374 
L 305.673249 260.524374 
L 308.952588 260.524374 
L 312.231927 260.524374 
L 315.511265 260.524374 
L 318.790604 260.524374 
L 322.069943 260.524374 
L 325.349282 260.524374 
L 328.628621 260.524374 
L 331.90796 260.524374 
L 335.187299 260.524374 
L 338.466637 260.524374 
L 341.745976 260.680026 
L 345.025315 260.680026 
L 348.304654 260.680026 
L 351.583993 260.680026 
L 354.863332 260.680026 
L 358.14267 260.680026 
L 361.422009 260.680026 
L 364.701348 260.680026 
L 367.980687 260.680026 
L 371.260026 260.680026 
L 374.539365 260.935896 
L 377.818704 260.935896 
L 381.098042 260.935896 
L 384.377381 260.935896 
L 387.65672 260.935896 
L 390.936059 261.216 
L 394.215398 261.216 
" style="fill:none;stroke:#ff7f0e;stroke-linecap:square;stroke-width:1.5;"/>
   </g>
   <g id="patch_3">
    <path d="M 53.328125 273.312 
L 53.328125 7.2 
" style="fill:none;stroke:#000000;stroke-linecap:square;stroke-linejoin:miter;stroke-width:0.8;"/>
   </g>
   <g id="patch_4">
    <path d="M 410.448125 273.312 
L 410.448125 7.2 
" style="fill:none;stroke:#000000;stroke-linecap:square;stroke-linejoin:miter;stroke-width:0.8;"/>
   </g>
   <g id="patch_5">
    <path d="M 53.328125 273.312 
L 410.448125 273.312 
" style="fill:none;stroke:#000000;stroke-linecap:square;stroke-linejoin:miter;stroke-width:0.8;"/>
   </g>
   <g id="patch_6">
    <path d="M 53.328125 7.2 
L 410.448125 7.2 
" style="fill:none;stroke:#000000;stroke-linecap:square;stroke-linejoin:miter;stroke-width:0.8;"/>
   </g>
   <g id="legend_1">
    <g id="patch_7">
     <path d="M 305.430938 44.55625 
L 403.448125 44.55625 
Q 405.448125 44.55625 405.448125 42.55625 
L 405.448125 14.2 
Q 405.448125 12.2 403.448125 12.2 
L 305.430938 12.2 
Q 303.430938 12.2 303.430938 14.2 
L 303.430938 42.55625 
Q 303.430938 44.55625 305.430938 44.55625 
z
" style="fill:#ffffff;opacity:0.8;stroke:#cccccc;stroke-linejoin:miter;"/>
    </g>
    <g id="line2d_17">
     <path d="M 307.430938 20.298437 
L 327.430938 20.298437 
" style="fill:none;stroke:#1f77b4;stroke-linecap:square;stroke-width:1.5;"/>
    </g>
    <g id="line2d_18"/>
    <g id="text_17">
     <!-- 种群个体平均目标函数值 -->
     <defs>
      <path d="M 4.984375 -17.671875 
L 4.984375 70.515625 
L 54.984375 70.515625 
L 54.984375 -17.671875 
z
M 10.59375 -12.109375 
L 49.421875 -12.109375 
L 49.421875 64.890625 
L 10.59375 64.890625 
z
" id="DejaVuSans-31181"/>
      <path d="M 4.984375 -17.671875 
L 4.984375 70.515625 
L 54.984375 70.515625 
L 54.984375 -17.671875 
z
M 10.59375 -12.109375 
L 49.421875 -12.109375 
L 49.421875 64.890625 
L 10.59375 64.890625 
z
" id="DejaVuSans-32676"/>
      <path d="M 4.984375 -17.671875 
L 4.984375 70.515625 
L 54.984375 70.515625 
L 54.984375 -17.671875 
z
M 10.59375 -12.109375 
L 49.421875 -12.109375 
L 49.421875 64.890625 
L 10.59375 64.890625 
z
" id="DejaVuSans-20010"/>
      <path d="M 4.984375 -17.671875 
L 4.984375 70.515625 
L 54.984375 70.515625 
L 54.984375 -17.671875 
z
M 10.59375 -12.109375 
L 49.421875 -12.109375 
L 49.421875 64.890625 
L 10.59375 64.890625 
z
" id="DejaVuSans-20307"/>
      <path d="M 4.984375 -17.671875 
L 4.984375 70.515625 
L 54.984375 70.515625 
L 54.984375 -17.671875 
z
M 10.59375 -12.109375 
L 49.421875 -12.109375 
L 49.421875 64.890625 
L 10.59375 64.890625 
z
" id="DejaVuSans-24179"/>
      <path d="M 4.984375 -17.671875 
L 4.984375 70.515625 
L 54.984375 70.515625 
L 54.984375 -17.671875 
z
M 10.59375 -12.109375 
L 49.421875 -12.109375 
L 49.421875 64.890625 
L 10.59375 64.890625 
z
" id="DejaVuSans-22343"/>
      <path d="M 4.984375 -17.671875 
L 4.984375 70.515625 
L 54.984375 70.515625 
L 54.984375 -17.671875 
z
M 10.59375 -12.109375 
L 49.421875 -12.109375 
L 49.421875 64.890625 
L 10.59375 64.890625 
z
" id="DejaVuSans-30446"/>
      <path d="M 4.984375 -17.671875 
L 4.984375 70.515625 
L 54.984375 70.515625 
L 54.984375 -17.671875 
z
M 10.59375 -12.109375 
L 49.421875 -12.109375 
L 49.421875 64.890625 
L 10.59375 64.890625 
z
" id="DejaVuSans-26631"/>
      <path d="M 4.984375 -17.671875 
L 4.984375 70.515625 
L 54.984375 70.515625 
L 54.984375 -17.671875 
z
M 10.59375 -12.109375 
L 49.421875 -12.109375 
L 49.421875 64.890625 
L 10.59375 64.890625 
z
" id="DejaVuSans-20989"/>
      <path d="M 4.984375 -17.671875 
L 4.984375 70.515625 
L 54.984375 70.515625 
L 54.984375 -17.671875 
z
M 10.59375 -12.109375 
L 49.421875 -12.109375 
L 49.421875 64.890625 
L 10.59375 64.890625 
z
" id="DejaVuSans-25968"/>
      <path d="M 4.984375 -17.671875 
L 4.984375 70.515625 
L 54.984375 70.515625 
L 54.984375 -17.671875 
z
M 10.59375 -12.109375 
L 49.421875 -12.109375 
L 49.421875 64.890625 
L 10.59375 64.890625 
z
" id="DejaVuSans-20540"/>
     </defs>
     <g transform="translate(335.430938 23.798437)scale(0.1 -0.1)">
      <use xlink:href="#DejaVuSans-31181"/>
      <use x="60.009766" xlink:href="#DejaVuSans-32676"/>
      <use x="120.019531" xlink:href="#DejaVuSans-20010"/>
      <use x="180.029297" xlink:href="#DejaVuSans-20307"/>
      <use x="240.039062" xlink:href="#DejaVuSans-24179"/>
      <use x="300.048828" xlink:href="#DejaVuSans-22343"/>
      <use x="360.058594" xlink:href="#DejaVuSans-30446"/>
      <use x="420.068359" xlink:href="#DejaVuSans-26631"/>
      <use x="480.078125" xlink:href="#DejaVuSans-20989"/>
      <use x="540.087891" xlink:href="#DejaVuSans-25968"/>
      <use x="600.097656" xlink:href="#DejaVuSans-20540"/>
     </g>
    </g>
    <g id="line2d_19">
     <path d="M 307.430938 34.976562 
L 327.430938 34.976562 
" style="fill:none;stroke:#ff7f0e;stroke-linecap:square;stroke-width:1.5;"/>
    </g>
    <g id="line2d_20"/>
    <g id="text_18">
     <!-- 种群最优个体目标函数值 -->
     <defs>
      <path d="M 4.984375 -17.671875 
L 4.984375 70.515625 
L 54.984375 70.515625 
L 54.984375 -17.671875 
z
M 10.59375 -12.109375 
L 49.421875 -12.109375 
L 49.421875 64.890625 
L 10.59375 64.890625 
z
" id="DejaVuSans-26368"/>
      <path d="M 4.984375 -17.671875 
L 4.984375 70.515625 
L 54.984375 70.515625 
L 54.984375 -17.671875 
z
M 10.59375 -12.109375 
L 49.421875 -12.109375 
L 49.421875 64.890625 
L 10.59375 64.890625 
z
" id="DejaVuSans-20248"/>
     </defs>
     <g transform="translate(335.430938 38.476562)scale(0.1 -0.1)">
      <use xlink:href="#DejaVuSans-31181"/>
      <use x="60.009766" xlink:href="#DejaVuSans-32676"/>
      <use x="120.019531" xlink:href="#DejaVuSans-26368"/>
      <use x="180.029297" xlink:href="#DejaVuSans-20248"/>
      <use x="240.039062" xlink:href="#DejaVuSans-20010"/>
      <use x="300.048828" xlink:href="#DejaVuSans-20307"/>
      <use x="360.058594" xlink:href="#DejaVuSans-30446"/>
      <use x="420.068359" xlink:href="#DejaVuSans-26631"/>
      <use x="480.078125" xlink:href="#DejaVuSans-20989"/>
      <use x="540.087891" xlink:href="#DejaVuSans-25968"/>
      <use x="600.097656" xlink:href="#DejaVuSans-20540"/>
     </g>
    </g>
   </g>
  </g>
 </g>
 <defs>
  <clipPath id="p5d86fe0d92">
   <rect height="266.112" width="357.12" x="53.328125" y="7.2"/>
  </clipPath>
 </defs>
</svg>
